<svg xmlns="http://www.w3.org/2000/svg" viewBox="0 0 512 512" width="512" height="512">
  <g stroke="#444" stroke-width="10" stroke-linejoin="round">
    <!-- Airplane body -->
    <path d="M256 20c-13 0-23 10-23 23v100c0 8 10 14 23 14s23-6 23-14V43c0-13-10-23-23-23z"/>
    <path d="M233 163v273l-34 34v20l34-32c2-2 6-2 8 0 2 1 3 3 3 5l1 28h22l1-28c0-2 1-4 3-5 2-2 6-2 8 0l34 32v-20l-34-34V163c-7 3-15 5-23 5s-16-2-23-5z" fill="#e5e5e5"/>
  </g>
  
  <!-- Wings -->
  <g stroke="#444" stroke-width="10" stroke-linejoin="round">
    <path d="M85 218l-21 4v32l163-12-3-52-139 24z"/>
    <path d="M427 218l21 4v32l-163-12 3-52 139 24z"/>
    
    <!-- Tail wings -->
    <path d="M128 382v21h26v-26l-26 5z"/>
    <path d="M384 382v21h-26v-26l26 5z"/>
    <path d="M160 378v34h72l-2-48-70 11z"/>
    <path d="M352 378v34h-72l2-48 70 11z"/>
  </g>
</svg>
