<svg xmlns="http://www.w3.org/2000/svg" version="1.1" viewBox="-5.0 -10.0 110.0 135.0">
 <path d="m51.406 84.57h1.9141v-4.5977h0.94531c3.3867-10.949 0.003906-41.906-0.69141-47.871-0.078125-0.21875-0.12891-0.44922-0.12891-0.68359v-4.1797h-6.8945v4.1797c0 0.23438-0.046875 0.46484-0.12891 0.68359-0.69531 5.9648-4.0781 36.922-0.69141 47.871h0.94922v4.5977h1.9141v3.2852l-9.2539 1.7578h9.2539v0.51172c0 0.77734 0.62891 1.4062 1.4023 1.4062 0.77734 0 1.4062-0.62891 1.4062-1.4062v-0.51172h9.2539l-9.2539-1.8516v-3.1914z"/>
 <path d="m50 9.4609c1.9023 0 3.4453 1.543 3.4453 3.4453v13.02h-6.8945v-13.02c0-1.9023 1.543-3.4453 3.4453-3.4453z"/>
 <path d="m30.285 81.621h-12.203v5.7539l2.2227-2.2227c0.375-0.375 0.88281-0.58594 1.4141-0.58594h8.5664z"/>
 <path d="m43.488 80.621v-0.64844h1.207c-3.0781-10.68-0.47656-37.234 0.51563-46.109l-16.336 21.617v-6.5391h-1v7.8633l-8.7812 11.617c-0.65625 0.86719-1.0117 1.9258-1.0117 3.0156v9.1836z"/>
 <path d="m31.285 81.621h12.203v2.9453h-12.203z"/>
 <path d="m56.512 81.621h12.203v2.9453h-12.203z"/>
 <path d="m56.512 79.973v0.64844h25.402v-9.1836c0-1.0898-0.35547-2.1445-1.0117-3.0156l-8.7812-11.621v-7.8633h-1v6.5391l-16.336-21.617c0.99219 8.8789 3.5938 35.43 0.51562 46.109h1.207z"/>
 <path d="m69.711 81.621v2.9453h8.5664c0.53125 0 1.0391 0.21094 1.4141 0.58594l2.2227 2.2227v-5.7539z"/>
<text x="0.0" y="117.5" font-size="5.0" font-weight="bold" font-family="Arbeit Regular, Helvetica, Arial-Unicode, Arial, Sans-serif" fill="#000000">Created by Eliricon</text><text x="0.0" y="122.5" font-size="5.0" font-weight="bold" font-family="Arbeit Regular, Helvetica, Arial-Unicode, Arial, Sans-serif" fill="#000000">from Noun Project</text></svg>