<!--
  An updated SVG image of a commercial airliner, seen from a top-down perspective.
  This version features a sleeker fuselage and more defined wings, tail, and engines,
  aiming for a more realistic and modern appearance.
-->
<svg width="400" height="400" viewBox="0 0 400 400" xmlns="http://www.w3.org/2000/svg">
  <!-- Fuselage -->
  <path d="M 200,30 C 190,40 190,360 200,370 C 210,360 210,40 200,30 Z" stroke="#B0B0B0" stroke-width="2" />

  <!-- Cockpit -->
  <ellipse cx="200" cy="50" rx="15" ry="10" fill="#99AACC" stroke="#667799" stroke-width="1" />

  <!-- Wings -->
  <path d="M 200,160 L 190,170 C 120,200 40,240 30,250 L 50,260 C 100,240 180,200 190,180 L 200,170 Z" fill="#C0C0C0" stroke="#A0A0A0" stroke-width="2" />
  <path d="M 200,160 L 210,170 C 280,200 360,240 370,250 L 350,260 C 300,240 220,200 210,180 L 200,170 Z" fill="#C0C0C0" stroke="#A0A0A0" stroke-width="2" />
  
  <!-- Engine nacelles, two on each side, with a slightly more oval shape -->
  <g>
    <!-- Left engines -->
    <ellipse cx="90" cy="240" rx="20" ry="10" fill="#444" />
    <ellipse cx="150" cy="200" rx="20" ry="10" fill="#444" />
    <!-- Right engines -->
    <ellipse cx="310" cy="240" rx="20" ry="10" fill="#444" />
    <ellipse cx="250" cy="200" rx="20" ry="10" fill="#444" />
  </g>
  
  <!-- Horizontal stabilizer (tail wings) with a more defined shape -->
  <path d="M 180,340 C 160,345 150,350 150,360 L 180,365 C 180,355 190,350 190,345 Z" fill="#C0C0C0" stroke="#A0A0A0" stroke-width="2" />
  <path d="M 220,340 C 240,345 250,350 250,360 L 220,365 C 220,355 210,350 210,345 Z" fill="#C0C0C0" stroke="#A0A0A0" stroke-width="2" />
  
  <!-- Vertical stabilizer (tail fin) -->
  <path d="M 200,340 L 190,300 C 190,280 210,280 210,300 L 200,340 Z" fill="#999" stroke="#555" stroke-width="2" />

</svg>
